<?xml version="1.0" encoding="UTF-8"?>
<svg width="86px" height="89px" viewBox="0 0 86 89" version="1.1" xmlns="http://www.w3.org/2000/svg" xmlns:xlink="http://www.w3.org/1999/xlink">
    <!-- Generator: Sketch 47.1 (45422) - http://www.bohemiancoding.com/sketch -->
    <title>twitter</title>
    <desc>Created with Sketch.</desc>
    <defs></defs>
    <g id="Page-1" stroke="none" stroke-width="1" fill="none" fill-rule="evenodd">
        <g id="twitter">
            <g id="Group-4" transform="translate(0.000000, 0.533500)">
                <path d="M79.4224,42.1991 C77.7834,41.8791 76.4914,41.1351 76.4914,41.1351 L76.5454,40.8051 C78.0714,40.1841 81.9124,37.8601 82.4184,36.1111 C82.6384,35.3571 82.3794,34.9221 82.3774,34.8921 L77.4704,34.7531 L73.3464,34.7621 C70.4894,29.8251 66.1494,25.3681 61.2744,22.8441 C52.5404,18.3201 39.9474,22.0251 39.9474,30.7531 C39.9474,32.3491 45.6114,35.0411 46.0544,36.7191 C46.0544,37.1761 46.0714,36.2681 46.0544,36.7191 C40.3524,33.6511 32.9964,27.2651 26.4004,20.1581 C13.2604,6.0001 12.4324,0.4141 12.4324,0.4141 C10.3514,1.7961 5.9474,3.7531 5.9474,3.7531 L17.3614,27.5921 C17.3614,27.5921 15.2964,26.5941 13.1294,24.6841 C10.9554,22.7701 10.1334,21.5441 10.1334,21.5441 C8.8384,24.3981 11.4354,31.9641 15.9084,38.6821 C18.5064,42.5861 23.2344,46.5691 23.2344,46.5691 L15.8384,43.1301 C15.4204,50.9611 30.8584,63.3021 30.8584,63.3021 C26.3574,64.9781 21.1104,64.7891 15.4564,62.0351 C12.5134,60.6021 9.6614,58.7231 6.9474,56.5011 C6.9474,56.7531 0.9474,59.7531 0.9474,59.7531 C0.9474,59.7531 28.3694,81.8161 32.9474,83.7531 C59.8444,95.1381 76.1594,73.5621 76.8614,48.5871 L76.8944,48.6571 C76.8944,48.6571 78.1184,48.5791 80.7294,46.9081 C83.3314,45.2431 84.9474,42.5681 84.9474,42.5681 C84.9474,42.5681 81.0594,42.5201 79.4224,42.1991" id="Fill-1" fill="#FFFFFF"></path>
                <path d="M79.4224,42.1991 C77.7834,41.8791 76.4914,41.1351 76.4914,41.1351 L76.5454,40.8051 C78.0714,40.1841 81.9124,37.8601 82.4184,36.1111 C82.6384,35.3571 82.3794,34.9221 82.3774,34.8921 L77.4704,34.7531 L73.3464,34.7621 C70.4894,29.8251 66.1494,25.3681 61.2744,22.8441 C52.5404,18.3201 39.9474,22.0251 39.9474,30.7531 C39.9474,32.3491 45.6114,35.0411 46.0544,36.7191 C46.0544,37.1761 46.0714,36.2681 46.0544,36.7191 C40.3524,33.6511 32.9964,27.2651 26.4004,20.1581 C13.2604,6.0001 12.4324,0.4141 12.4324,0.4141 C10.3514,1.7961 5.9474,3.7531 5.9474,3.7531 L17.3614,27.5921 C17.3614,27.5921 15.2964,26.5941 13.1294,24.6841 C10.9554,22.7701 10.1334,21.5441 10.1334,21.5441 C8.8384,24.3981 11.4354,31.9641 15.9084,38.6821 C18.5064,42.5861 23.2344,46.5691 23.2344,46.5691 L15.8384,43.1301 C15.4204,50.9611 30.8584,63.3021 30.8584,63.3021 C26.3574,64.9781 21.1104,64.7891 15.4564,62.0351 C12.5134,60.6021 9.6614,58.7231 6.9474,56.5011 C6.9474,56.7531 0.9474,59.7531 0.9474,59.7531 C0.9474,59.7531 28.3694,81.8161 32.9474,83.7531 C59.8444,95.1381 76.1594,73.5621 76.8614,48.5871 L76.8944,48.6571 C76.8944,48.6571 78.1184,48.5791 80.7294,46.9081 C83.3314,45.2431 84.9474,42.5681 84.9474,42.5681 C84.9474,42.5681 81.0594,42.5201 79.4224,42.1991" id="Stroke-3" stroke="#000000" stroke-width="1.895" stroke-linecap="round" stroke-linejoin="round"></path>
            </g>
            <g id="Group-40" transform="translate(0.000000, 3.533500)">
                <path d="M73.4224,42.513 C71.7834,42.193 70.4914,41.449 70.4914,41.449 L70.5454,41.119 C72.0714,40.498 75.9124,38.174 76.4184,36.425 C76.6384,35.671 76.3794,35.237 76.3774,35.207 L71.4704,35.067 L67.3464,35.077 C64.4894,30.139 60.1494,25.682 55.2744,23.158 C46.5404,18.634 39.4014,22.011 39.4014,30.74 C39.4014,32.335 39.6114,35.356 40.0544,37.033 C40.0544,37.49 40.0714,36.582 40.0544,37.033 C34.3524,33.965 26.9964,27.579 20.4004,20.472 C7.2604,6.314 6.4324,0.728 6.4324,0.728 C4.3514,2.11 3.2764,9.696 5.3874,17.149 C6.7374,21.913 11.3614,27.906 11.3614,27.906 C11.3614,27.906 9.2964,26.908 7.1294,24.998 C4.9554,23.084 4.1334,21.859 4.1334,21.859 C2.8384,24.713 5.4354,32.278 9.9084,38.996 C12.5064,42.9 17.2344,46.884 17.2344,46.884 L9.8384,43.444 C9.4204,51.275 24.8584,63.616 24.8584,63.616 C20.3574,65.293 15.1104,65.103 9.4564,62.35 C6.5134,60.916 3.6614,59.037 0.9474,56.815 C8.4734,67.361 18.0654,76.732 28.3934,81.102 C55.2904,92.487 70.1594,73.876 70.8614,48.901 L70.8944,48.971 C70.8944,48.971 72.1184,48.893 74.7294,47.222 C77.3314,45.557 78.9474,42.883 78.9474,42.883 C78.9474,42.883 75.0594,42.834 73.4224,42.513" id="Fill-37" fill="#FFFFFF"></path>
                <path d="M73.4224,42.513 C71.7834,42.193 70.4914,41.449 70.4914,41.449 L70.5454,41.119 C72.0714,40.498 75.9124,38.174 76.4184,36.425 C76.6384,35.671 76.3794,35.237 76.3774,35.207 L71.4704,35.067 L67.3464,35.077 C64.4894,30.139 60.1494,25.682 55.2744,23.158 C46.5404,18.634 39.4014,22.011 39.4014,30.74 C39.4014,32.335 39.6114,35.356 40.0544,37.033 C40.0544,37.49 40.0714,36.582 40.0544,37.033 C34.3524,33.965 26.9964,27.579 20.4004,20.472 C7.2604,6.314 6.4324,0.728 6.4324,0.728 C4.3514,2.11 3.2764,9.696 5.3874,17.149 C6.7374,21.913 11.3614,27.906 11.3614,27.906 C11.3614,27.906 9.2964,26.908 7.1294,24.998 C4.9554,23.084 4.1334,21.859 4.1334,21.859 C2.8384,24.713 5.4354,32.278 9.9084,38.996 C12.5064,42.9 17.2344,46.884 17.2344,46.884 L9.8384,43.444 C9.4204,51.275 24.8584,63.616 24.8584,63.616 C20.3574,65.293 15.1104,65.103 9.4564,62.35 C6.5134,60.916 3.6614,59.037 0.9474,56.815 C8.4734,67.361 18.0654,76.732 28.3934,81.102 C55.2904,92.487 70.1594,73.876 70.8614,48.901 L70.8944,48.971 C70.8944,48.971 72.1184,48.893 74.7294,47.222 C77.3314,45.557 78.9474,42.883 78.9474,42.883 C78.9474,42.883 75.0594,42.834 73.4224,42.513" id="Stroke-39" stroke="#000000" stroke-width="1.895" stroke-linecap="round" stroke-linejoin="round"></path>
            </g>
        </g>
    </g>
</svg>